<svg id="Logos" xmlns="http://www.w3.org/2000/svg" viewBox="0 0 445.65 76.56"><defs><style>.cls-1{fill:#fff;}</style></defs><title>Artboard 2 copy 2</title><path class="cls-1" d="M15.43,47.54H3V73.38H5.39V63.53h10a8,8,0,1,0,0-16Zm0,13.62h-10V49.9h10a5.63,5.63,0,1,1,0,11.26Z"/><path class="cls-1" d="M44.36,62.38a7.42,7.42,0,0,0,0-14.84H30.69V73.38h2.37v-11h5.72l11,11h3.33l-11-11ZM33.06,60V49.9h11.3a5.06,5.06,0,0,1,0,10.12Z"/><rect class="cls-1" x="60.51" y="47.54" width="2.36" height="25.84"/><path class="cls-1" d="M83,68.8,72.34,47.54H69.69l13.07,26a.35.35,0,0,0,.55,0l13.07-26H93.72Z"/><path class="cls-1" d="M110.28,47.36l-13.69,26h2.65l4.21-8h14.14l4.21,8h2.66l-13.66-26A.28.28,0,0,0,110.28,47.36ZM104.71,63l5.83-11.08L116.34,63Z"/><polygon class="cls-1" points="123.78 49.9 134.04 49.9 134.04 73.38 136.41 73.38 136.41 49.9 146.67 49.9 146.67 47.54 123.78 47.54 123.78 49.9"/><polygon class="cls-1" points="154.29 61.64 169.79 61.64 169.79 59.28 154.29 59.28 154.29 49.9 170.64 49.9 170.64 47.54 151.92 47.54 151.92 73.38 170.75 73.38 170.75 71.02 154.29 71.02 154.29 61.64"/><polygon class="cls-1" points="197.37 61.64 212.87 61.64 212.87 59.28 197.37 59.28 197.37 49.9 213.72 49.9 213.72 47.54 195 47.54 195 73.38 213.83 73.38 213.83 71.02 197.37 71.02 197.37 61.64"/><polygon class="cls-1" points="244.56 47.54 241.53 47.54 233.12 58.06 224.66 47.54 221.63 47.54 231.6 59.94 220.79 73.38 223.81 73.38 233.12 61.83 242.38 73.38 245.41 73.38 234.63 59.94 244.56 47.54"/><path class="cls-1" d="M270.8,68.43a11.3,11.3,0,1,1,0-15.94,5.56,5.56,0,0,1,.88,1l1.7-1.7a13.66,13.66,0,1,0-10.56,22.34,13.54,13.54,0,0,0,10.6-5.06l-1.66-1.69A7.47,7.47,0,0,1,270.8,68.43Z"/><polygon class="cls-1" points="284.25 47.54 281.89 47.54 281.89 73.38 299.61 73.38 299.61 71.02 284.25 71.02 284.25 47.54"/><path class="cls-1" d="M324.43,62.86a8.9,8.9,0,0,1-17.8,0V47.54h-2.36V62.86a11.26,11.26,0,0,0,22.52,0V47.54h-2.36Z"/><path class="cls-1" d="M345.78,58.76,342.57,58C338,57,338,54.41,338,53.56c0-2.73,2.25-4.4,5.87-4.4a9.89,9.89,0,0,1,7,3.18l1.7-1.63a12.26,12.26,0,0,0-8.67-3.91c-5,0-8.23,2.66-8.23,6.76,0,3.39,2.25,5.79,6.34,6.75l3.25.74c3.88,1,5.76,2.77,5.76,5.47,0,3-2.95,5.24-7,5.24A10.05,10.05,0,0,1,336.48,68l-1.81,1.55A12.48,12.48,0,0,0,344,74.12c5.43,0,9.38-3.21,9.38-7.6C353.39,63.82,352.06,60.31,345.78,58.76Z"/><rect class="cls-1" x="362.12" y="47.54" width="2.36" height="25.84"/><path class="cls-1" d="M384,68.8,373.34,47.54h-2.66l13.07,26a.35.35,0,0,0,.55,0l13.07-26h-2.66Z"/><polygon class="cls-1" points="405.38 61.64 420.89 61.64 420.89 59.28 405.38 59.28 405.38 49.9 421.74 49.9 421.74 47.54 403.02 47.54 403.02 73.38 421.85 73.38 421.85 71.02 405.38 71.02 405.38 61.64"/><path class="cls-1" d="M437.36,58.76,434.14,58c-4.54-1.07-4.54-3.61-4.54-4.46,0-2.73,2.26-4.4,5.87-4.4a9.92,9.92,0,0,1,7,3.18l1.7-1.63a12.26,12.26,0,0,0-8.68-3.91c-5,0-8.23,2.66-8.23,6.76,0,3.39,2.25,5.79,6.35,6.75l3.25.74c3.88,1,5.76,2.77,5.76,5.47,0,3-3,5.24-7,5.24A10.07,10.07,0,0,1,428.05,68l-1.81,1.55a12.5,12.5,0,0,0,9.34,4.58c5.43,0,9.38-3.21,9.38-7.6C445,63.82,443.63,60.31,437.36,58.76Z"/><path class="cls-1" d="M45.08,2.44A13.72,13.72,0,1,0,58.79,16.16,13.72,13.72,0,0,0,45.08,2.44Zm0,23.7a10,10,0,1,1,10-10A10,10,0,0,1,45.08,26.14Z"/><path class="cls-1" d="M96,3.25a.39.39,0,0,0-.31.18L81.56,22.53,67.43,3.43a.39.39,0,0,0-.32-.18.38.38,0,0,0-.37.37V29.07h3.73V14L81.34,28.62a.29.29,0,0,0,.22.1.3.3,0,0,0,.22-.1L92.64,14v15h3.74V3.62A.38.38,0,0,0,96,3.25Z"/><path class="cls-1" d="M110.52,19.81h8.72a8.28,8.28,0,1,0,0-16.56H106.79V29.07h3.73Zm0-12.82h8.72a4.55,4.55,0,0,1,0,9.09h-8.72Z"/><path class="cls-1" d="M14.21,6.18a10,10,0,0,1,7.89,3.88l2.68-2.64a13.72,13.72,0,1,0,0,17.48L22.1,22.26A10,10,0,1,1,14.21,6.18Z"/><path class="cls-1" d="M171.88,13.8,169,13.16c-3.08-.66-3.32-2.77-3.32-3.39,0-2.11,1.7-3.32,4.65-3.32a8.62,8.62,0,0,1,5.92,2.75l2.64-2.58a11.43,11.43,0,0,0-8.56-3.83c-5,0-8.38,2.81-8.38,7,0,1.32,0,5.36,6.73,7l3.15.71c2.91.8,4.32,2.19,4.32,4.27,0,2.42-2.35,4.12-5.72,4.12A8.42,8.42,0,0,1,164,22.56l-2.63,2.57a12.15,12.15,0,0,0,9.11,4.4c5.39,0,9.45-3.34,9.45-7.77C179.9,17.79,177.13,15,171.88,13.8Z"/><path class="cls-1" d="M205.06,21.76c0-4-2.77-6.73-8-8l-2.86-.64c-3.08-.66-3.32-2.77-3.32-3.39,0-2.11,1.7-3.32,4.65-3.32a8.62,8.62,0,0,1,5.92,2.75l2.64-2.58a11.43,11.43,0,0,0-8.56-3.83c-5,0-8.38,2.81-8.38,7,0,1.32,0,5.36,6.73,7l3.15.71c2.91.8,4.32,2.19,4.32,4.27,0,2.42-2.35,4.12-5.72,4.12a8.42,8.42,0,0,1-6.48-3.32l-2.63,2.57a12.15,12.15,0,0,0,9.11,4.4C201,29.53,205.06,26.19,205.06,21.76Z"/><rect class="cls-1" x="38.62" y="14.29" width="12.92" height="3.74" transform="translate(1.78 36.61) rotate(-45)"/><path class="cls-1" d="M156.71,29.07,143.08,3.24a.38.38,0,0,0-.68,0L128.78,29.07H133l3.49-6.62H149l3.49,6.62ZM138.46,18.71l4.28-8.11L147,18.71Z"/></svg>