<?xml version="1.0" encoding="UTF-8"?>
<svg viewBox="0 0 24 24" preserveAspectRatio="xMidYMid" xmlns="http://www.w3.org/2000/svg" version="1.1">
    <!--Generated by IJSVG (https://github.com/iconjar/IJSVG)-->
    <g>
        <g>
            <g>
                <path d="M8.40798 3.51002L4.22033 6.86016C2.97496 7.85647 2.25 9.36485 2.25 10.9597V16.5C2.25 19.3995 4.6005 21.75 7.5 21.75H16.5C19.3995 21.75 21.75 19.3995 21.75 16.5V10.9597C21.75 9.36484 21.025 7.85646 19.7797 6.86015L15.592 3.51002C13.492 1.82999 10.508 1.82999 8.40798 3.51002ZM14.655 4.68132L18.8426 8.03145C19.7322 8.7431 20.25 9.82051 20.25 10.9597V16.5C20.25 18.5711 18.5711 20.25 16.5 20.25H7.5C5.42893 20.25 3.75 18.5711 3.75 16.5V10.9597C3.75 9.82052 4.26783 8.74311 5.15738 8.03146L9.34502 4.68132C10.8972 3.43955 13.1028 3.43955 14.655 4.68132Z" fill="#6cace3"/>
                <path d="M13.4495 10.0074C12.98 10.0418 12.5292 10.1951 12.1385 10.45L12 10.547 11.8608 10.4494C11.415 10.1587 10.89 10 10.3483 10 9.60358 10 8.89022 10.3001 8.36934 10.8324L8.22868 10.9877C7.28472 12.1289 7.34982 13.7701 8.3694 14.8118L10.3234 16.7959C10.7634 17.2456 11.3684 17.5 12 17.5 12.6316 17.5 13.2366 17.2456 13.6783 16.7941L15.629 14.8134C16.7129 13.706 16.7129 11.938 15.6306 10.8323L15.4751 10.6859C14.9494 10.2358 14.3117 10 13.6517 10L13.4495 10.0074ZM13.6517 11.5C13.9541 11.5 14.2464 11.6081 14.4758 11.8041L14.5825 11.9048C15.0702 12.4042 15.0702 13.2399 14.5586 13.7626L12.6079 15.7433C12.4466 15.9081 12.2281 16 12 16 11.7719 16 11.5533 15.9081 11.3938 15.7451L9.43975 13.761C8.95957 13.2703 8.92878 12.4942 9.36432 11.9671L9.4629 11.8586C9.68015 11.6375 10.0071 11.5 10.3483 11.5 10.6896 11.5 11.0165 11.6375 11.2552 11.8814L11.4656 12.0951C11.7594 12.3934 12.2406 12.3934 12.5344 12.0951L12.7431 11.8831C12.9835 11.6375 13.3104 11.5 13.6517 11.5Z" fill="#6cace3"/>
                <polygon points="0 0 24 0 24 24 0 24" fill-rule="evenodd" fill="none"/>
            </g>
        </g>
    </g>
</svg>