<?xml version="1.0" encoding="UTF-8"?>
<svg viewBox="0 0 24 24" preserveAspectRatio="xMidYMid" xmlns="http://www.w3.org/2000/svg" version="1.1">
    <!--Generated by IJSVG (https://github.com/iconjar/IJSVG)-->
    <g>
        <g>
            <g>
                <polygon points="24 24 0 24 0 0 24 0" fill-rule="evenodd" fill="none"/>
                <path d="M18.714 2.25C19.6319 2.25 20.3852 2.95737 20.4582 3.85651L20.464 4V19C20.464 20.4629 19.3227 21.6584 17.8816 21.745L17.714 21.75H15C14.5858 21.75 14.25 21.4142 14.25 21 14.25 20.6203 14.5322 20.3065 14.8982 20.2568L15 20.25H17.714C18.3616 20.25 18.8936 19.7585 18.9576 19.1279L18.964 19V4C18.964 3.8819 18.8816 3.78258 18.7712 3.75662L18.714 3.75H16.857C16.7389 3.75 16.6396 3.83244 16.6136 3.94277L16.607 4V6.306C16.607 6.72021 16.2712 7.056 15.857 7.056 15.4773 7.056 15.1635 6.77385 15.1138 6.40777L15.107 6.306V4C15.107 3.0821 15.8144 2.32883 16.7135 2.2558L16.857 2.25H18.714Z" fill="#6cace3"/>
                <path d="M10.2099 3.54656C11.1907 2.70585 12.6156 2.66582 13.6387 3.42642L13.789 3.54652 21.488 10.1445C21.8026 10.4141 21.839 10.8875 21.5695 11.202 21.3244 11.488 20.9109 11.5441 20.6014 11.3494L20.512 11.2835 12.8129 4.68544C12.3808 4.31505 11.7591 4.28656 11.2979 4.59998L11.1861 4.68545 3.48808 11.2835C3.17358 11.553 2.70011 11.5166 2.43055 11.2021 2.18549 10.9162 2.19332 10.4989 2.43306 10.2228L2.51192 10.1445 10.2099 3.54656Z" fill="#6cace3"/>
                <path d="M9.02567 15.6927C9.31856 15.3998 9.79344 15.3998 10.0863 15.6927 10.3526 15.9589 10.3768 16.3756 10.1589 16.6692L10.0863 16.7533 8.14133 18.6983C7.87506 18.9646 7.4584 18.9888 7.16479 18.7709L7.08067 18.6983 5.91367 17.5313C5.62078 17.2384 5.62078 16.7636 5.91367 16.4707 6.17994 16.2044 6.5966 16.1802 6.89021 16.3981L6.97433 16.4707 7.611 17.107 9.02567 15.6927Z" fill="#6cace3"/>
                <path d="M6.02 12.222L5.13706 12.3406 4.97407 12.3688C4.11679 12.5525 3.45798 13.2554 3.34058 14.1359L3.222 15.021 2.67919 15.7315 2.57855 15.8751C2.10891 16.609 2.14243 17.566 2.67874 18.2689L3.221 18.979 3.33957 19.863 3.36784 20.026C3.5515 20.8832 4.2544 21.542 5.13488 21.6594L6.021 21.778 6.73031 22.3207 6.87403 22.4214C7.60825 22.8912 8.56645 22.8576 9.26854 22.3208L9.977 21.778 10.8619 21.6604 11.0249 21.6322C11.8822 21.4485 12.541 20.7456 12.6584 19.8651L12.776 18.979 13.3198 18.2695 13.4205 18.1258C13.8902 17.3917 13.8566 16.4336 13.3198 15.7315L12.777 15.021 12.6594 14.138 12.6312 13.975C12.4475 13.1178 11.7446 12.459 10.8641 12.3416L9.977 12.222 9.26869 11.6803C8.51964 11.1076 7.47936 11.1076 6.73046 11.6802L6.02 12.222ZM8.35746 12.8718L9.22531 13.5357C9.32916 13.6151 9.45197 13.666 9.58156 13.6834L10.6656 13.8284C10.9299 13.8636 11.1373 14.0713 11.1726 14.3361L11.3166 15.417C11.3338 15.5466 11.3847 15.6695 11.4641 15.7734L12.1281 16.6424C12.2896 16.8536 12.2896 17.1474 12.1282 17.3585L11.593 18.057 11.5696 18.0788C11.4491 18.1942 11.3466 18.3587 11.3166 18.5826L11.1716 19.6666C11.1364 19.9309 10.9287 20.1383 10.6639 20.1736L9.58206 20.3176C9.45228 20.3348 9.32929 20.3858 9.22531 20.4653L8.35731 21.1293C8.14636 21.2906 7.85264 21.2906 7.64154 21.1292L6.77369 20.4653C6.66984 20.3859 6.54703 20.335 6.41744 20.3176L5.33344 20.1726C5.06912 20.1374 4.86174 19.9297 4.82642 19.6649L4.68243 18.584C4.66517 18.4544 4.61432 18.3315 4.53494 18.2276L3.87094 17.3586C3.70932 17.1468 3.70932 16.8537 3.8708 16.6425L4.40523 15.9434 4.42935 15.9222C4.54994 15.8068 4.65244 15.6423 4.68238 15.4184L4.82738 14.3344C4.86262 14.0701 5.07026 13.8627 5.33512 13.8274L6.41694 13.6834 6.52762 13.6617C6.63302 13.6339 6.72262 13.5882 6.79675 13.5299L6.873 13.458 7.64136 12.8719C7.85264 12.7104 8.14636 12.7104 8.35746 12.8718Z" fill="#6cace3"/>
            </g>
        </g>
    </g>
</svg>